<?xml version="1.0" standalone="no"?>
<!DOCTYPE svg PUBLIC "-//W3C//DTD SVG 20010904//EN"
 "http://www.w3.org/TR/2001/REC-SVG-20010904/DTD/svg10.dtd">
<svg version="1.0" xmlns="http://www.w3.org/2000/svg"
 width="300.000000pt" height="300.000000pt" viewBox="0 0 300.000000 300.000000"
 preserveAspectRatio="xMidYMid meet">
<metadata>
Created by potrace 1.10, written by Peter Selinger 2001-2011
</metadata>
<g transform="translate(0.000000,300.000000) scale(0.100000,-0.100000)"
fill="#000000" stroke="none">
<path d="M2198 2371 c-75 -24 -115 -50 -175 -114 -152 -160 -164 -396 -28
-569 81 -104 194 -160 329 -164 l89 -2 31 -48 31 -48 3 -182 c3 -173 2 -184
-17 -203 -12 -12 -27 -21 -35 -21 -7 0 -28 29 -45 65 -35 70 -86 120 -160 157
-37 18 -63 23 -136 23 -95 0 -135 -14 -212 -72 -36 -28 -88 -105 -98 -145 l-7
-28 -327 0 -327 0 -24 52 c-29 65 -99 136 -165 168 -42 21 -65 25 -140 25 -84
0 -94 -2 -153 -34 -70 -38 -121 -93 -152 -164 -20 -44 -23 -47 -58 -47 -77 0
-85 23 -76 212 9 195 3 188 218 268 87 32 159 60 161 62 1 2 37 45 79 96 106
128 205 231 237 248 23 11 98 14 409 14 l380 0 0 45 0 45 -381 0 c-266 0 -394
-4 -421 -12 -54 -16 -120 -77 -251 -233 l-110 -130 -148 -56 c-247 -94 -258
-109 -259 -367 -1 -150 1 -176 17 -204 27 -46 65 -70 122 -76 32 -3 51 -9 51
-17 0 -7 9 -42 20 -78 49 -158 219 -259 378 -226 31 6 73 19 92 29 82 43 153
138 171 232 l12 58 318 0 319 0 0 -38 c0 -85 85 -204 180 -252 197 -100 443
28 476 247 6 39 9 44 44 53 46 12 97 67 105 113 4 19 5 112 3 208 l-3 174 -32
59 c-18 33 -32 60 -30 60 39 13 108 61 147 102 109 116 148 279 102 431 -41
133 -149 243 -280 283 -81 25 -196 26 -274 1z m287 -102 c64 -30 134 -100 165
-164 22 -43 25 -64 25 -150 0 -90 -3 -105 -28 -153 -36 -68 -94 -124 -165
-159 -49 -24 -69 -28 -142 -28 -76 0 -93 4 -152 33 -74 36 -132 95 -169 170
-19 38 -24 63 -24 137 0 77 4 98 26 146 42 88 123 159 219 190 14 5 63 7 110
5 64 -2 97 -8 135 -27z m1 -694 c-9 -13 -16 -32 -16 -40 0 -14 -5 -12 -29 7
-32 26 -32 29 12 45 47 17 51 16 33 -12z m-1606 -416 c189 -86 200 -335 18
-434 -161 -88 -352 29 -353 215 0 53 5 73 28 112 65 111 197 157 307 107z
m1316 -7 c135 -70 174 -244 80 -366 -28 -37 -105 -81 -159 -90 -56 -10 -139
17 -189 62 -137 123 -94 344 78 408 51 19 139 12 190 -14z m-1694 -182 l-7
-44 -23 24 -22 24 27 22 c16 12 29 21 30 20 2 -1 -1 -22 -5 -46z m608 15 c11
-14 10 -19 -8 -37 -26 -26 -28 -25 -37 30 -7 41 -6 43 12 33 11 -5 26 -17 33
-26z m695 -22 l-6 -35 -24 22 -24 22 27 23 c31 27 37 19 27 -32z m602 -6 c-20
-30 -37 -33 -37 -5 0 13 -3 34 -7 47 l-6 25 32 -23 c29 -21 31 -25 18 -44z"/>
<path d="M2332 2192 l-44 -3 4 -95 3 -94 -97 0 -98 0 0 -45 0 -45 98 0 97 0
-3 -95 -3 -95 45 0 46 0 0 95 0 95 98 0 99 0 -1 45 -1 45 -97 0 -97 0 -3 98
-3 97 -43 -3z m52 -228 c2 -7 -6 -22 -19 -34 l-24 -23 -30 25 -29 25 25 26
c25 24 27 25 49 9 13 -9 25 -22 28 -28z"/>
<path d="M709 1057 c-46 -31 -71 -81 -66 -134 15 -144 204 -181 269 -52 66
129 -83 266 -203 186z m115 -83 c32 -31 7 -94 -37 -94 -27 0 -57 28 -57 53 0
48 61 74 94 41z"/>
<path d="M2021 1062 c-73 -37 -98 -111 -62 -186 53 -109 199 -112 253 -5 64
124 -67 255 -191 191z m103 -88 c34 -34 9 -94 -39 -94 -24 0 -55 33 -55 59 0
42 63 66 94 35z"/>
</g>
</svg>
