<?xml version="1.0" encoding="utf-8" ?>
<svg baseProfile="full" height="1024px" version="1.1" viewBox="0 0 1024 1024" width="1024px" xmlns="http://www.w3.org/2000/svg" xmlns:ev="http://www.w3.org/2001/xml-events" xmlns:xlink="http://www.w3.org/1999/xlink"><defs /><path d="M 168,535 L 168,538 L 169,539 L 167,540 L 166,544 L 164,546 L 165,548 L 164,549 L 164,552 L 165,553 L 163,554 L 163,556 L 161,557 L 161,559 L 162,560 L 160,563 L 161,566 L 159,568 L 160,572 L 158,574 L 158,578 L 159,579 L 159,581 L 158,582 L 158,588 L 157,589 L 157,594 L 158,595 L 157,597 L 157,603 L 158,604 L 157,605 L 157,608 L 159,611 L 158,612 L 158,615 L 160,618 L 159,620 L 161,624 L 160,625 L 160,627 L 163,631 L 162,632 L 162,634 L 163,634 L 165,637 L 165,641 L 167,642 L 167,645 L 169,646 L 168,648 L 171,650 L 171,652 L 172,654 L 174,655 L 174,657 L 176,658 L 176,660 L 177,660 L 178,662 L 184,668 L 184,669 L 187,672 L 187,673 L 190,674 L 192,676 L 192,677 L 194,676 L 195,677 L 195,679 L 198,679 L 199,680 L 199,682 L 201,681 L 202,682 L 203,686 L 204,686 L 206,684 L 207,686 L 210,688 L 210,689 L 212,689 L 215,691 L 219,691 L 220,693 L 222,692 L 223,694 L 225,694 L 226,693 L 228,695 L 231,694 L 232,696 L 235,696 L 236,695 L 237,696 L 242,696 L 243,697 L 245,697 L 246,696 L 247,697 L 249,697 L 250,696 L 252,697 L 254,696 L 255,697 L 257,696 L 267,696 L 268,697 L 270,696 L 272,696 L 273,697 L 275,696 L 282,696 L 283,697 L 285,696 L 304,696 L 305,697 L 307,696 L 315,696 L 316,697 L 318,696 L 374,696 L 375,694 L 376,695 L 379,695 L 386,688 L 387,688 L 386,686 L 387,685 L 387,683 L 386,682 L 387,681 L 389,681 L 388,679 L 389,674 L 387,672 L 385,668 L 385,666 L 382,666 L 381,665 L 382,663 L 381,663 L 380,661 L 376,661 L 374,659 L 365,659 L 364,660 L 362,660 L 361,659 L 359,660 L 357,660 L 356,659 L 351,659 L 350,660 L 348,659 L 346,659 L 345,660 L 342,660 L 341,659 L 338,659 L 337,660 L 336,659 L 331,659 L 330,660 L 329,659 L 327,660 L 324,660 L 323,659 L 319,659 L 318,660 L 317,659 L 313,659 L 312,660 L 311,659 L 308,659 L 307,660 L 303,660 L 302,659 L 299,659 L 298,660 L 296,660 L 295,659 L 293,660 L 287,660 L 286,659 L 284,659 L 283,660 L 282,659 L 269,659 L 268,660 L 266,659 L 262,659 L 261,660 L 257,659 L 255,660 L 254,659 L 249,659 L 248,660 L 244,660 L 241,658 L 239,659 L 237,659 L 236,658 L 232,658 L 231,656 L 229,657 L 228,655 L 226,656 L 224,655 L 223,653 L 222,653 L 221,655 L 219,651 L 217,651 L 216,649 L 212,649 L 211,648 L 211,645 L 205,642 L 205,639 L 202,636 L 202,634 L 200,632 L 200,630 L 198,628 L 198,626 L 196,622 L 196,619 L 195,618 L 196,614 L 194,611 L 194,609 L 195,608 L 195,600 L 194,599 L 195,598 L 195,592 L 194,591 L 195,589 L 194,587 L 195,585 L 193,584 L 196,582 L 196,576 L 197,575 L 197,573 L 196,572 L 197,570 L 197,565 L 196,564 L 198,563 L 198,561 L 199,560 L 199,556 L 198,555 L 199,554 L 201,554 L 201,552 L 202,551 L 202,546 L 200,545 L 199,543 L 197,544 L 196,542 L 195,542 L 193,544 L 192,543 L 192,541 L 189,541 L 188,540 L 186,540 L 185,541 L 184,539 L 182,538 L 182,537 L 178,537 L 177,535 L 175,536 L 173,534 L 169,534 Z" fill="#000000" /><path d="M 493,257 L 489,257 L 485,259 L 485,261 L 484,262 L 485,264 L 481,266 L 481,269 L 478,272 L 478,274 L 477,275 L 478,277 L 476,278 L 475,280 L 473,281 L 473,283 L 471,284 L 471,287 L 472,288 L 470,289 L 468,292 L 467,292 L 466,296 L 465,297 L 466,299 L 463,301 L 462,303 L 463,305 L 459,308 L 459,311 L 458,313 L 456,314 L 456,317 L 455,318 L 456,320 L 454,321 L 454,323 L 455,324 L 453,328 L 453,335 L 455,336 L 454,339 L 455,341 L 457,341 L 458,342 L 457,344 L 459,347 L 459,349 L 461,350 L 462,354 L 463,354 L 466,357 L 467,357 L 469,359 L 469,360 L 471,360 L 480,365 L 483,365 L 484,367 L 486,367 L 487,366 L 497,366 L 498,365 L 501,365 L 502,364 L 504,364 L 508,362 L 508,361 L 509,360 L 511,360 L 512,358 L 514,358 L 515,356 L 520,352 L 520,350 L 522,349 L 522,347 L 524,346 L 525,344 L 525,341 L 527,340 L 526,338 L 527,337 L 527,334 L 528,333 L 527,331 L 528,325 L 526,322 L 527,321 L 527,319 L 525,318 L 524,312 L 521,308 L 521,306 L 519,303 L 519,301 L 515,296 L 515,293 L 513,291 L 512,288 L 510,287 L 506,277 L 504,276 L 503,272 L 500,266 L 498,265 L 499,263 L 495,261 Z" fill="#000000" /><path d="M 302,248 L 294,249 L 291,251 L 288,251 L 288,252 L 285,255 L 285,257 L 283,258 L 283,259 L 281,261 L 278,261 L 279,263 L 277,265 L 274,265 L 272,267 L 272,268 L 268,272 L 267,272 L 267,273 L 265,274 L 264,276 L 262,277 L 262,278 L 260,279 L 260,280 L 258,281 L 256,283 L 256,284 L 254,286 L 253,286 L 253,287 L 245,295 L 244,295 L 244,297 L 242,298 L 241,300 L 238,301 L 236,305 L 223,318 L 222,318 L 222,319 L 217,324 L 217,326 L 210,333 L 208,333 L 203,338 L 202,338 L 200,340 L 200,341 L 196,344 L 196,346 L 194,348 L 194,349 L 192,350 L 191,352 L 191,354 L 192,355 L 192,360 L 191,362 L 193,363 L 194,367 L 197,370 L 199,370 L 200,371 L 200,373 L 202,374 L 200,375 L 200,376 L 202,377 L 201,378 L 201,384 L 202,385 L 201,386 L 201,389 L 202,390 L 200,391 L 198,395 L 196,403 L 194,404 L 195,406 L 193,409 L 193,411 L 191,415 L 191,417 L 192,418 L 190,419 L 188,423 L 188,425 L 186,427 L 186,430 L 185,431 L 184,436 L 182,439 L 182,442 L 180,443 L 180,446 L 179,447 L 178,453 L 176,454 L 176,455 L 178,457 L 176,458 L 176,459 L 174,460 L 173,462 L 174,464 L 173,465 L 173,467 L 171,468 L 171,469 L 173,471 L 171,472 L 168,478 L 168,481 L 166,482 L 166,483 L 168,485 L 165,487 L 164,492 L 162,495 L 162,498 L 161,499 L 161,502 L 162,503 L 161,504 L 159,504 L 159,511 L 161,512 L 161,515 L 163,516 L 163,518 L 165,520 L 167,520 L 172,524 L 176,524 L 177,525 L 182,526 L 183,528 L 185,527 L 187,528 L 188,530 L 190,529 L 191,531 L 193,530 L 194,532 L 198,532 L 200,534 L 202,533 L 204,535 L 209,535 L 209,533 L 210,532 L 213,534 L 215,533 L 221,533 L 222,534 L 224,534 L 225,535 L 233,537 L 234,539 L 236,538 L 237,539 L 239,539 L 240,541 L 244,541 L 245,542 L 247,542 L 251,545 L 253,544 L 254,545 L 256,545 L 257,547 L 259,547 L 260,548 L 264,548 L 268,550 L 270,550 L 271,549 L 272,551 L 276,553 L 284,555 L 286,557 L 288,556 L 290,557 L 291,555 L 292,556 L 292,558 L 297,558 L 301,556 L 302,557 L 304,557 L 305,555 L 311,554 L 313,552 L 315,552 L 316,550 L 320,549 L 320,547 L 326,541 L 328,536 L 330,534 L 331,530 L 332,529 L 332,528 L 330,526 L 332,525 L 333,523 L 334,517 L 335,516 L 335,514 L 336,513 L 338,505 L 340,504 L 340,502 L 339,501 L 340,500 L 340,498 L 342,497 L 341,495 L 346,484 L 346,482 L 344,481 L 346,480 L 347,478 L 348,478 L 347,476 L 349,474 L 349,472 L 350,471 L 349,469 L 351,467 L 351,466 L 349,465 L 351,464 L 351,463 L 353,461 L 353,459 L 355,455 L 355,450 L 354,449 L 356,448 L 357,444 L 358,443 L 358,441 L 360,439 L 360,434 L 362,433 L 361,431 L 362,430 L 362,428 L 363,427 L 363,425 L 364,424 L 364,422 L 366,418 L 366,415 L 365,414 L 367,413 L 368,409 L 370,408 L 370,405 L 372,401 L 372,396 L 374,394 L 373,392 L 374,389 L 372,388 L 372,386 L 374,385 L 374,383 L 373,382 L 374,380 L 372,378 L 372,376 L 369,374 L 370,373 L 370,370 L 368,366 L 364,363 L 365,361 L 364,360 L 362,352 L 360,351 L 360,349 L 358,349 L 357,348 L 358,346 L 357,345 L 357,342 L 356,340 L 354,340 L 353,339 L 355,338 L 355,336 L 354,335 L 354,333 L 355,332 L 355,327 L 357,325 L 357,323 L 359,322 L 359,320 L 361,318 L 361,315 L 360,314 L 361,313 L 363,313 L 363,307 L 361,305 L 360,301 L 355,296 L 353,292 L 352,292 L 350,290 L 350,289 L 348,289 L 345,286 L 345,285 L 344,285 L 342,283 L 342,282 L 341,282 L 339,280 L 337,280 L 335,278 L 335,275 L 333,273 L 332,273 L 330,271 L 330,270 L 329,270 L 323,264 L 322,264 L 317,259 L 317,258 L 316,258 L 314,256 L 314,255 L 310,254 L 308,250 L 305,250 L 304,251 Z" fill="#000000" /><path d="M 556,200 L 554,202 L 553,202 L 552,204 L 550,204 L 550,205 L 547,208 L 546,208 L 546,210 L 543,213 L 543,216 L 541,219 L 542,221 L 542,383 L 541,384 L 542,386 L 542,411 L 541,412 L 542,414 L 542,455 L 541,456 L 542,458 L 542,636 L 541,637 L 542,640 L 541,641 L 541,644 L 543,646 L 543,650 L 544,650 L 548,655 L 548,657 L 550,657 L 552,659 L 552,660 L 554,660 L 555,662 L 558,662 L 559,664 L 563,663 L 564,665 L 567,665 L 568,664 L 573,664 L 574,665 L 576,664 L 578,665 L 580,664 L 581,665 L 585,665 L 586,664 L 588,664 L 589,665 L 592,665 L 593,664 L 595,664 L 596,665 L 602,665 L 603,664 L 604,665 L 607,665 L 608,664 L 610,664 L 611,665 L 613,664 L 614,665 L 616,664 L 620,664 L 621,665 L 623,664 L 624,665 L 626,664 L 627,665 L 629,664 L 630,665 L 632,664 L 634,665 L 639,665 L 640,664 L 642,665 L 644,664 L 653,664 L 654,665 L 656,664 L 658,665 L 660,665 L 661,664 L 663,665 L 665,664 L 666,665 L 669,665 L 670,664 L 674,664 L 675,665 L 680,665 L 681,664 L 686,664 L 687,665 L 689,664 L 691,665 L 693,664 L 710,664 L 711,665 L 715,665 L 716,664 L 718,665 L 720,665 L 721,664 L 723,664 L 724,665 L 728,665 L 729,664 L 730,665 L 734,665 L 735,664 L 740,664 L 741,665 L 743,664 L 745,664 L 746,665 L 748,664 L 767,664 L 768,665 L 770,664 L 771,665 L 776,665 L 777,664 L 779,664 L 780,665 L 782,664 L 784,665 L 786,664 L 787,665 L 789,665 L 790,664 L 791,665 L 799,665 L 800,664 L 801,665 L 805,665 L 806,664 L 810,665 L 811,664 L 817,664 L 819,665 L 820,664 L 824,664 L 825,665 L 834,665 L 835,664 L 836,665 L 839,665 L 842,663 L 850,661 L 851,659 L 853,659 L 853,656 L 854,655 L 858,654 L 858,652 L 857,651 L 859,650 L 861,647 L 862,647 L 862,645 L 863,644 L 863,641 L 862,640 L 862,631 L 863,630 L 862,628 L 862,621 L 863,620 L 862,618 L 862,611 L 863,610 L 862,608 L 863,607 L 862,605 L 862,602 L 863,601 L 862,599 L 863,598 L 863,595 L 862,594 L 862,567 L 863,566 L 863,564 L 862,563 L 862,561 L 863,560 L 862,558 L 862,554 L 863,553 L 862,551 L 862,517 L 863,516 L 862,514 L 863,513 L 863,511 L 862,510 L 862,508 L 863,507 L 862,505 L 863,504 L 862,502 L 862,499 L 863,498 L 862,496 L 862,484 L 863,483 L 862,481 L 862,474 L 863,473 L 863,471 L 862,470 L 863,469 L 862,467 L 863,466 L 863,464 L 862,463 L 863,461 L 862,459 L 862,455 L 863,454 L 863,452 L 862,451 L 863,449 L 862,447 L 863,446 L 863,444 L 862,443 L 863,441 L 862,439 L 862,431 L 863,430 L 862,428 L 862,419 L 863,418 L 863,415 L 862,414 L 863,413 L 863,411 L 862,410 L 862,408 L 863,407 L 863,404 L 862,403 L 862,396 L 863,395 L 863,393 L 862,392 L 862,390 L 863,389 L 862,387 L 862,382 L 863,381 L 863,379 L 862,378 L 862,373 L 863,372 L 862,370 L 863,369 L 862,367 L 863,366 L 862,364 L 863,362 L 863,360 L 862,359 L 862,356 L 863,355 L 863,350 L 862,349 L 863,348 L 862,346 L 862,343 L 863,342 L 862,340 L 863,339 L 863,337 L 862,336 L 862,333 L 863,332 L 862,330 L 863,329 L 862,327 L 862,321 L 863,319 L 862,318 L 862,307 L 861,306 L 861,303 L 859,301 L 859,300 L 858,300 L 857,298 L 856,298 L 855,296 L 854,296 L 852,294 L 852,293 L 851,293 L 847,289 L 847,288 L 846,288 L 845,286 L 843,285 L 839,281 L 839,280 L 837,279 L 827,269 L 827,268 L 826,268 L 819,261 L 819,260 L 818,260 L 809,251 L 809,250 L 808,250 L 803,245 L 803,244 L 802,244 L 798,240 L 798,239 L 796,238 L 794,236 L 794,235 L 793,235 L 785,227 L 785,226 L 784,226 L 778,220 L 778,219 L 776,218 L 774,216 L 774,215 L 773,215 L 772,213 L 771,213 L 770,211 L 761,203 L 761,202 L 755,201 L 754,199 L 693,199 L 692,200 L 691,199 L 666,199 L 665,200 L 664,199 L 635,199 L 634,200 L 633,199 L 627,199 L 626,200 L 625,199 L 622,199 L 621,200 L 620,199 L 618,200 L 617,199 L 573,199 L 572,200 L 571,199 L 560,199 L 558,201 Z" fill="#000000" /><path d="M 509,177 L 507,175 L 507,174 L 505,173 L 506,172 L 505,168 L 500,163 L 494,160 L 490,160 L 487,162 L 481,162 L 477,165 L 475,165 L 471,167 L 468,167 L 467,168 L 465,167 L 462,171 L 460,169 L 459,169 L 457,171 L 455,171 L 451,173 L 449,172 L 448,174 L 446,174 L 445,175 L 442,175 L 441,176 L 439,175 L 438,177 L 436,176 L 436,177 L 434,178 L 433,180 L 432,179 L 427,179 L 425,181 L 423,181 L 422,182 L 420,181 L 419,183 L 416,183 L 415,184 L 413,184 L 412,185 L 410,185 L 406,187 L 404,186 L 403,187 L 401,187 L 399,189 L 390,191 L 390,192 L 388,193 L 386,196 L 385,195 L 381,196 L 380,198 L 376,199 L 374,202 L 371,203 L 371,204 L 369,206 L 367,206 L 364,209 L 364,210 L 345,229 L 344,229 L 344,230 L 342,232 L 341,232 L 335,238 L 334,238 L 334,239 L 332,240 L 332,241 L 330,242 L 329,244 L 328,244 L 329,246 L 326,249 L 324,249 L 324,250 L 325,250 L 327,252 L 329,252 L 331,254 L 330,256 L 331,256 L 334,259 L 334,260 L 335,260 L 336,262 L 337,262 L 339,264 L 339,265 L 341,266 L 341,267 L 344,268 L 348,273 L 349,273 L 354,278 L 356,278 L 357,279 L 357,281 L 359,282 L 362,279 L 362,278 L 364,276 L 365,276 L 365,273 L 366,272 L 368,273 L 369,271 L 371,270 L 372,267 L 374,265 L 374,263 L 375,262 L 377,263 L 377,262 L 379,260 L 380,260 L 380,258 L 382,256 L 383,256 L 383,255 L 386,252 L 386,251 L 391,246 L 392,246 L 393,243 L 395,242 L 395,241 L 399,238 L 400,235 L 404,233 L 406,230 L 408,230 L 412,227 L 415,227 L 418,225 L 422,225 L 424,223 L 425,223 L 426,221 L 427,223 L 428,223 L 431,221 L 435,221 L 437,219 L 439,219 L 440,218 L 442,219 L 443,217 L 445,218 L 446,216 L 448,216 L 449,215 L 451,216 L 452,214 L 457,214 L 459,212 L 461,212 L 462,211 L 464,212 L 464,211 L 466,210 L 467,208 L 469,210 L 470,210 L 471,208 L 472,209 L 474,209 L 476,208 L 477,206 L 480,206 L 481,205 L 483,206 L 484,204 L 486,205 L 487,203 L 489,204 L 490,202 L 492,203 L 493,201 L 495,201 L 496,200 L 501,200 L 503,199 L 507,195 L 508,192 L 510,191 L 509,189 L 511,187 L 511,185 L 509,183 L 510,180 L 508,179 Z" fill="#000000" /></svg>