<?xml version="1.0" standalone="no"?>
<!DOCTYPE svg PUBLIC "-//W3C//DTD SVG 20010904//EN"
 "http://www.w3.org/TR/2001/REC-SVG-20010904/DTD/svg10.dtd">
<svg version="1.0" xmlns="http://www.w3.org/2000/svg"
 width="300.000000pt" height="300.000000pt" viewBox="0 0 300.000000 300.000000"
 preserveAspectRatio="xMidYMid meet">
<metadata>
Created by potrace 1.10, written by Peter Selinger 2001-2011
</metadata>
<g transform="translate(0.000000,300.000000) scale(0.100000,-0.100000)"
fill="#000000" stroke="none">
<path d="M620 2608 c-18 -13 -43 -36 -54 -51 -21 -28 -21 -33 -24 -918 l-2
-889 -64 0 c-49 0 -69 -5 -90 -21 -26 -20 -26 -21 -26 -160 0 -126 2 -141 20
-159 20 -20 33 -20 815 -20 782 0 795 0 815 20 18 18 20 33 20 154 0 170 -5
178 -109 184 l-71 4 0 499 c0 552 -3 528 62 470 l33 -29 5 -354 c5 -334 6
-356 26 -399 30 -64 88 -125 148 -157 45 -24 62 -27 146 -27 84 0 101 3 146
27 60 32 118 93 148 157 21 45 21 56 21 576 0 499 -1 532 -19 565 -10 19 -95
113 -189 208 -134 134 -177 172 -197 172 -31 0 -90 -56 -90 -85 0 -11 30 -50
67 -87 l67 -67 -13 -80 c-12 -82 -3 -178 21 -226 6 -11 57 -68 114 -126 l104
-106 0 -328 c0 -313 -1 -331 -21 -372 -56 -115 -228 -129 -307 -25 l-27 35 -5
356 c-5 342 -6 358 -27 397 -32 60 -94 111 -157 129 l-55 16 -3 312 c-3 294
-4 314 -24 347 -11 19 -35 45 -54 57 l-33 23 -542 0 -542 0 -33 -22z m1078
-120 c9 -9 12 -217 12 -875 l0 -863 -515 0 -515 0 0 869 c0 686 3 870 13 874
6 3 233 6 502 6 370 1 494 -2 503 -11z m752 -548 c0 -28 -4 -50 -8 -50 -11 0
-77 70 -90 95 -9 19 -16 71 -13 105 1 9 24 -8 56 -43 51 -54 55 -61 55 -107z
m-552 -1372 l-3 -43 -702 -3 -703 -2 0 45 0 45 706 0 705 0 -3 -42z"/>
<path d="M820 2360 c-18 -18 -20 -32 -20 -181 0 -91 4 -169 10 -180 10 -18 25
-19 378 -19 214 0 373 4 382 10 21 13 22 352 2 372 -10 10 -94 14 -372 16
-350 3 -360 2 -380 -18z"/>
<path d="M1180 1693 c-18 -4 -130 -181 -191 -303 -39 -76 -43 -92 -43 -155 0
-52 5 -80 21 -111 66 -124 222 -174 343 -108 29 16 65 44 81 64 39 47 63 129
54 187 -8 52 -86 210 -164 331 -54 83 -73 101 -101 95z"/>
</g>
</svg>
