<?xml version="1.0" standalone="no"?>
<!DOCTYPE svg PUBLIC "-//W3C//DTD SVG 20010904//EN"
 "http://www.w3.org/TR/2001/REC-SVG-20010904/DTD/svg10.dtd">
<svg version="1.0" xmlns="http://www.w3.org/2000/svg"
 width="300.000000pt" height="300.000000pt" viewBox="0 0 300.000000 300.000000"
 preserveAspectRatio="xMidYMid meet">
<metadata>
Created by potrace 1.10, written by Peter Selinger 2001-2011
</metadata>
<g transform="translate(0.000000,300.000000) scale(0.100000,-0.100000)"
fill="#000000" stroke="none">
<path d="M702 2585 c-59 -26 -101 -66 -132 -128 l-30 -60 0 -844 0 -843 -33 0
c-59 0 -67 -19 -67 -166 0 -97 4 -135 14 -150 14 -18 33 -19 680 -19 525 0
668 3 678 13 7 7 15 36 18 64 l5 51 58 14 c205 46 376 228 404 430 5 38 11 47
42 63 49 25 96 76 120 130 20 43 21 64 21 536 l0 490 -25 50 c-14 28 -37 62
-52 76 -44 42 -453 288 -478 288 -49 0 -73 -61 -37 -92 9 -8 56 -39 104 -68
l86 -52 -14 -34 c-20 -47 -19 -213 1 -262 39 -91 127 -142 247 -142 l59 0 -3
-368 -3 -369 -28 -36 c-33 -43 -42 -41 -50 7 -9 58 -64 162 -116 218 l-48 53
-6 110 c-6 124 -19 165 -74 226 -50 55 -123 90 -200 97 l-62 5 -3 271 c-3 305
-5 311 -85 388 -71 69 -64 68 -535 68 -342 -1 -429 -3 -456 -15z m888 -117
c18 -13 43 -36 54 -51 20 -28 21 -40 24 -447 l3 -418 -35 -6 c-68 -13 -179
-77 -241 -140 -165 -168 -201 -411 -93 -619 18 -34 34 -65 36 -69 2 -5 -152
-8 -342 -8 l-346 0 0 818 c0 501 4 830 10 851 5 19 20 45 32 59 47 50 55 51
474 52 389 0 391 0 424 -22z m671 -213 c77 -50 108 -98 109 -167 l0 -38 -70 0
c-63 0 -73 3 -102 29 -27 24 -32 36 -36 89 -5 68 4 132 18 132 6 0 42 -20 81
-45z m-355 -521 c59 -28 88 -76 92 -154 l4 -67 -68 23 c-38 13 -88 24 -111 24
l-43 0 0 101 0 102 46 -7 c25 -3 61 -13 80 -22z m-55 -294 c185 -35 326 -194
337 -379 5 -87 -13 -167 -54 -237 -36 -60 -125 -141 -191 -172 -52 -24 -70
-27 -169 -27 -107 0 -112 1 -186 38 -87 43 -152 107 -192 190 -115 237 21 520
279 583 64 16 109 17 176 4z m-317 -880 c32 -16 85 -35 117 -42 32 -7 59 -16
59 -20 0 -4 -261 -8 -580 -8 l-580 0 0 50 0 50 463 0 462 0 59 -30z"/>
<path d="M815 2368 c-43 -25 -44 -32 -45 -306 l0 -263 25 -24 24 -25 331 0
c347 0 378 4 394 45 3 9 6 133 6 275 l0 258 -31 26 -31 26 -326 0 c-227 -1
-333 -4 -347 -12z m625 -305 l0 -198 -278 0 -277 0 -3 198 -2 197 280 0 280 0
0 -197z"/>
<path d="M1738 1319 c-15 -9 -18 -26 -18 -119 l0 -110 -109 0 c-118 0 -141 -9
-141 -54 0 -48 17 -55 135 -58 l110 -3 5 -115 c5 -113 5 -115 32 -124 20 -7
33 -5 52 8 25 16 26 19 26 126 l0 110 108 0 c119 0 132 5 132 55 0 50 -13 55
-132 55 l-108 0 0 104 c0 97 -2 106 -22 120 -26 18 -46 20 -70 5z"/>
</g>
</svg>
