<?xml version="1.0" standalone="no"?>
<!DOCTYPE svg PUBLIC "-//W3C//DTD SVG 20010904//EN"
 "http://www.w3.org/TR/2001/REC-SVG-20010904/DTD/svg10.dtd">
<svg version="1.0" xmlns="http://www.w3.org/2000/svg"
 width="300.000000pt" height="300.000000pt" viewBox="0 0 300.000000 300.000000"
 preserveAspectRatio="xMidYMid meet">
<metadata>
Created by potrace 1.10, written by Peter Selinger 2001-2011
</metadata>
<g transform="translate(0.000000,300.000000) scale(0.100000,-0.100000)"
fill="#000000" stroke="none">
<path d="M860 2365 c-338 -217 -630 -406 -647 -420 -38 -30 -43 -65 -13 -95
26 -26 54 -25 96 1 l34 21 0 -751 0 -751 -48 0 c-56 0 -82 -20 -82 -63 0 -61
-91 -57 1295 -57 695 0 1271 3 1280 6 25 10 37 51 24 77 -17 32 -28 37 -81 37
l-48 0 0 749 0 749 39 -21 c32 -17 45 -20 67 -12 38 14 53 55 32 87 -8 13 -89
70 -179 128 -937 597 -1116 710 -1134 710 -11 0 -297 -178 -635 -395z m1163
-80 l517 -329 0 -793 0 -793 -1040 0 -1040 0 0 793 0 792 518 332 c284 183
520 331 523 330 3 -1 238 -150 522 -332z"/>
<path d="M981 1744 c-66 -33 -83 -59 -166 -261 -63 -151 -69 -163 -109 -188
-23 -14 -52 -42 -66 -62 -25 -36 -25 -40 -28 -277 -3 -261 -1 -276 50 -302 27
-14 28 -18 28 -87 0 -82 20 -134 60 -155 16 -8 54 -12 107 -10 75 3 85 6 110
31 26 25 28 35 31 117 l4 90 499 0 499 0 0 -85 c0 -79 2 -87 29 -117 29 -33
30 -33 125 -33 91 0 97 1 123 28 26 25 28 35 32 117 3 88 4 91 32 105 15 9 33
24 39 34 6 12 10 112 10 252 0 218 -1 236 -22 277 -14 31 -36 54 -67 74 -45
27 -49 33 -115 194 -38 91 -78 180 -90 197 -12 18 -45 44 -75 60 l-55 27 -466
0 -466 0 -53 -26z m997 -121 c19 -16 132 -267 132 -292 0 -8 -187 -11 -610
-11 -335 0 -610 3 -610 6 0 22 125 296 138 304 10 6 199 10 473 10 421 0 458
-1 477 -17z m-924 -534 c21 -17 26 -29 26 -65 0 -78 -38 -98 -171 -92 -97 4
-119 22 -119 93 0 35 5 48 26 64 23 18 41 21 119 21 78 0 96 -3 119 -21z
m1131 -4 c44 -43 27 -125 -28 -145 -44 -15 -163 -13 -196 5 -33 16 -41 33 -41
81 0 24 8 43 25 59 22 23 32 25 120 25 88 0 98 -2 120 -25z"/>
</g>
</svg>
