<?xml version="1.0" standalone="no"?>
<!DOCTYPE svg PUBLIC "-//W3C//DTD SVG 20010904//EN"
 "http://www.w3.org/TR/2001/REC-SVG-20010904/DTD/svg10.dtd">
<svg version="1.0" xmlns="http://www.w3.org/2000/svg"
 width="300.000000pt" height="300.000000pt" viewBox="0 0 300.000000 300.000000"
 preserveAspectRatio="xMidYMid meet">
<metadata>
Created by potrace 1.10, written by Peter Selinger 2001-2011
</metadata>
<g transform="translate(0.000000,300.000000) scale(0.100000,-0.100000)"
fill="#000000" stroke="none">
<path d="M1310 2653 c-91 -58 -372 -239 -625 -401 -253 -162 -470 -304 -482
-315 -28 -25 -29 -61 -3 -87 26 -26 54 -25 96 1 l34 21 0 -751 0 -751 -48 0
c-56 0 -82 -20 -82 -63 0 -61 -91 -57 1299 -57 1052 0 1270 2 1286 14 25 18
25 74 0 92 -10 8 -40 14 -67 14 l-48 0 -2 750 c-2 413 -2 750 0 750 2 0 20
-10 42 -22 31 -18 44 -21 66 -13 38 14 53 55 32 87 -8 13 -112 84 -229 159
-118 75 -405 259 -639 408 -233 149 -434 271 -445 271 -11 0 -94 -48 -185
-107z m692 -251 c266 -170 546 -349 623 -398 77 -50 141 -98 143 -107 4 -21
-18 -22 -66 -5 -31 12 -35 11 -53 -11 -18 -22 -19 -51 -19 -764 l0 -741 22
-23 c15 -16 33 -23 60 -23 31 0 38 -3 38 -20 0 -20 -7 -20 -1251 -20 -1181 0
-1250 1 -1247 17 2 12 16 20 42 24 81 13 76 -42 76 789 0 710 -1 739 -19 761
-18 22 -22 23 -53 11 -46 -16 -68 -15 -68 3 0 14 78 68 412 282 655 420 836
533 854 533 13 0 240 -139 506 -308z"/>
<path d="M1315 2550 c-88 -56 -186 -118 -218 -138 -32 -20 -104 -67 -160 -103
-56 -36 -189 -121 -295 -189 -107 -68 -201 -135 -210 -149 -15 -23 -17 -95
-17 -807 l0 -783 24 -25 24 -26 1034 0 1034 0 24 25 25 24 2 273 c1 150 0 505
-2 788 -2 424 -5 519 -17 537 -8 11 -168 119 -356 239 -188 120 -378 241 -422
269 -44 28 -117 75 -162 104 -125 80 -120 80 -308 -39z m708 -264 l517 -329 0
-794 0 -793 -1042 0 -1043 0 5 794 5 795 515 330 c283 182 518 329 521 328 3
-1 238 -150 522 -331z"/>
<path d="M982 1744 c-29 -14 -61 -38 -72 -54 -15 -21 -99 -211 -157 -356 -2
-7 -23 -24 -46 -38 -23 -15 -53 -43 -67 -63 -25 -36 -25 -39 -28 -279 -3 -267
-1 -280 57 -304 28 -11 28 -13 24 -74 -3 -37 0 -78 7 -100 19 -57 45 -69 153
-67 84 2 94 4 117 27 22 22 25 34 28 114 l4 90 499 2 499 3 0 -87 c0 -78 2
-89 26 -117 26 -31 26 -31 128 -31 97 0 104 1 127 26 22 23 24 34 24 115 0 88
0 89 28 100 55 23 57 33 57 288 0 220 -1 238 -21 279 -15 30 -37 54 -68 73
-44 29 -49 36 -117 198 -39 93 -81 182 -93 199 -11 17 -44 42 -73 56 l-52 26
-466 0 -466 0 -52 -26z m1040 -49 c45 -32 39 -21 174 -334 21 -49 38 -71 72
-95 77 -54 82 -73 82 -324 l0 -218 -39 -38 c-38 -37 -39 -40 -43 -121 -2 -48
-10 -90 -17 -99 -10 -12 -33 -16 -97 -16 -104 0 -114 10 -114 114 0 58 -4 74
-22 93 l-21 23 -497 0 c-411 0 -499 -2 -515 -14 -16 -11 -21 -31 -25 -99 -4
-48 -12 -92 -19 -101 -19 -23 -173 -23 -192 0 -7 9 -15 51 -17 99 -4 81 -5 84
-43 121 l-39 38 0 219 c0 250 4 268 75 317 55 38 60 47 136 230 68 164 101
211 162 229 19 6 224 9 494 8 l461 -2 44 -30z"/>
<path d="M1013 1661 c-33 -21 -72 -93 -128 -238 -31 -81 -29 -114 10 -131 19
-9 186 -12 616 -12 l590 0 25 25 c30 30 31 23 -39 190 -32 75 -63 132 -83 153
l-32 32 -464 0 c-440 0 -465 -1 -495 -19z m962 -35 c11 -8 47 -78 81 -157 l61
-144 -610 -3 c-336 -1 -612 0 -615 2 -7 8 111 279 130 298 17 17 49 18 476 18
375 0 462 -3 477 -14z"/>
<path d="M824 1141 c-11 -5 -33 -23 -47 -41 -51 -60 -26 -165 48 -196 45 -18
175 -18 220 0 45 19 75 69 75 124 0 34 -6 49 -34 80 l-34 37 -104 2 c-57 2
-112 -1 -124 -6z m219 -42 c31 -17 37 -28 37 -75 0 -26 -7 -51 -19 -65 -18
-23 -26 -24 -126 -24 -100 0 -108 1 -126 24 -27 33 -25 98 3 128 19 21 30 23
115 23 52 0 104 -5 116 -11z"/>
<path d="M1955 1140 c-97 -40 -97 -195 0 -236 50 -20 181 -19 224 4 39 20 71
72 71 118 0 37 -36 94 -70 111 -28 14 -193 17 -225 3z m230 -55 c32 -31 34
-96 5 -125 -27 -27 -57 -33 -151 -28 -70 3 -83 6 -100 27 -26 31 -25 91 2 125
20 25 24 26 120 26 93 0 102 -2 124 -25z"/>
</g>
</svg>
