<?xml version="1.0" standalone="no"?>
<!DOCTYPE svg PUBLIC "-//W3C//DTD SVG 20010904//EN"
 "http://www.w3.org/TR/2001/REC-SVG-20010904/DTD/svg10.dtd">
<svg version="1.0" xmlns="http://www.w3.org/2000/svg"
 width="300.000000pt" height="318.000000pt" viewBox="0 0 300.000000 318.000000"
 preserveAspectRatio="xMidYMid meet">
<metadata>
Created by potrace 1.10, written by Peter Selinger 2001-2011
</metadata>
<g transform="translate(0.000000,318.000000) scale(0.100000,-0.100000)"
fill="#000000" stroke="none">
<path d="M1480 2783 c-14 -9 -130 -112 -259 -228 -129 -115 -327 -293 -441
-395 -457 -411 -589 -531 -614 -560 -18 -23 -26 -43 -26 -71 0 -78 41 -119
121 -119 32 0 48 7 82 38 308 281 1185 1066 1195 1069 7 3 49 -28 95 -69 45
-40 172 -154 282 -253 110 -99 250 -225 310 -280 114 -104 310 -280 472 -422
88 -78 96 -83 139 -83 39 0 51 5 80 34 26 26 34 42 34 69 0 75 63 12 -800 788
-596 535 -553 499 -603 499 -24 0 -53 -8 -67 -17z"/>
<path d="M437 1394 l-88 -76 3 -346 3 -347 32 -67 c38 -81 97 -142 172 -177
l56 -26 315 0 315 0 3 399 c1 274 6 403 13 413 16 18 549 19 567 1 9 -9 12
-115 12 -415 l0 -403 293 0 c239 0 303 3 347 16 98 29 177 96 227 194 l28 55
3 351 3 352 -90 76 c-49 42 -92 76 -95 76 -3 0 -6 -173 -6 -385 0 -423 -1
-429 -59 -478 -46 -39 -67 -42 -256 -42 l-170 0 -5 330 -5 330 -28 48 c-32 55
-93 102 -149 118 -25 6 -156 9 -356 7 -303 -3 -319 -4 -357 -25 -43 -23 -81
-59 -111 -108 -17 -26 -19 -58 -24 -365 l-5 -335 -180 0 c-201 0 -235 8 -278
69 -22 31 -22 35 -25 434 -1 221 -6 402 -10 402 -4 0 -47 -34 -95 -76z"/>
</g>
</svg>
