<?xml version="1.0" standalone="no"?>
<!DOCTYPE svg PUBLIC "-//W3C//DTD SVG 20010904//EN"
 "http://www.w3.org/TR/2001/REC-SVG-20010904/DTD/svg10.dtd">
<svg version="1.0" xmlns="http://www.w3.org/2000/svg"
 width="300.000000pt" height="300.000000pt" viewBox="0 0 300.000000 300.000000"
 preserveAspectRatio="xMidYMid meet">
<metadata>
Created by potrace 1.10, written by Peter Selinger 2001-2011
</metadata>
<g transform="translate(0.000000,300.000000) scale(0.100000,-0.100000)"
fill="#000000" stroke="none">
<path d="M1194 2716 c-18 -14 -19 -30 -19 -448 l0 -433 60 0 60 0 3 368 c1
202 5 367 8 367 4 0 683 -257 807 -305 16 -7 17 -62 17 -956 0 -597 -4 -949
-10 -949 -5 0 -190 83 -412 184 l-403 183 -3 252 -2 251 -65 0 -65 0 0 -278
c0 -263 1 -280 19 -296 25 -23 975 -456 999 -456 10 0 28 10 40 23 l22 23 0
1031 c0 967 -1 1032 -17 1052 -12 14 -128 64 -328 141 -170 66 -319 125 -330
130 -12 5 171 9 483 9 l502 1 0 -980 0 -980 -100 0 -100 0 0 -60 0 -60 143 0
c127 0 146 2 160 18 16 17 17 107 17 1085 l0 1066 -22 15 c-20 14 -106 16
-733 16 -598 0 -714 -2 -731 -14z"/>
<path d="M556 1759 c-162 -133 -246 -208 -246 -220 0 -22 -3 -20 270 -243 121
-99 224 -176 236 -176 38 0 44 19 44 137 l0 113 328 0 c242 0 331 3 340 12 13
13 18 271 6 302 -5 14 -45 16 -340 16 l-334 0 0 114 c0 117 -9 146 -45 146 -8
0 -124 -91 -259 -201z"/>
<path d="M1863 1558 c-30 -33 -36 -62 -19 -101 26 -64 88 -76 137 -28 41 41
37 102 -10 138 -27 21 -85 16 -108 -9z"/>
</g>
</svg>
