<?xml version="1.0" standalone="no"?>
<!DOCTYPE svg PUBLIC "-//W3C//DTD SVG 20010904//EN"
 "http://www.w3.org/TR/2001/REC-SVG-20010904/DTD/svg10.dtd">
<svg version="1.0" xmlns="http://www.w3.org/2000/svg"
 width="300.000000pt" height="306.000000pt" viewBox="0 0 300.000000 306.000000"
 preserveAspectRatio="xMidYMid meet">
<metadata>
Created by potrace 1.10, written by Peter Selinger 2001-2011
</metadata>
<g transform="translate(0.000000,306.000000) scale(0.100000,-0.100000)"
fill="#000000" stroke="none">
<path d="M2313 2415 c-35 -8 -86 -26 -114 -41 -65 -36 -160 -137 -192 -206
-95 -201 -27 -451 155 -570 84 -55 133 -70 243 -77 l99 -6 33 -63 33 -64 0
-172 c0 -182 -6 -207 -50 -219 -16 -4 -25 5 -50 58 -71 149 -237 230 -391 190
-115 -29 -205 -107 -245 -211 l-17 -44 -335 2 -335 3 -33 63 c-17 35 -42 75
-55 88 -68 73 -200 121 -295 109 -116 -14 -230 -100 -281 -212 l-26 -55 -41 5
c-69 9 -76 27 -76 186 0 75 5 152 10 172 16 59 53 83 224 145 l159 59 75 90
c135 160 224 255 256 273 27 15 76 17 429 20 l397 3 0 45 0 45 -412 -3 c-402
-3 -414 -4 -453 -25 -47 -26 -139 -118 -260 -263 l-88 -105 -148 -56 c-180
-68 -219 -92 -250 -156 -23 -45 -24 -58 -24 -235 0 -174 1 -188 21 -215 29
-38 74 -63 131 -71 l46 -7 12 -55 c22 -110 91 -197 193 -247 49 -24 69 -28
142 -28 71 0 94 4 140 26 108 51 179 139 201 252 l12 57 327 0 327 0 12 -57
c39 -197 238 -322 427 -269 135 39 236 149 251 275 5 46 8 49 43 60 106 32
123 78 118 328 l-3 190 -32 62 -32 61 49 25 c71 36 143 113 186 199 32 65 37
87 42 166 13 238 -128 427 -357 476 -80 17 -117 17 -198 -1z m212 -99 c157
-48 267 -211 251 -375 -12 -129 -93 -243 -214 -299 -47 -22 -72 -26 -142 -27
-113 0 -187 32 -264 116 -69 74 -96 143 -96 242 2 201 153 355 351 357 36 0
87 -7 114 -14z m-1620 -1180 c97 -46 145 -121 145 -228 -1 -145 -103 -247
-246 -248 -105 0 -187 52 -230 145 -98 209 123 429 331 331z m1338 8 c28 -10
65 -34 91 -60 158 -158 47 -424 -177 -424 -71 0 -120 20 -171 68 -53 51 -76
104 -76 180 0 107 48 182 145 228 59 28 122 31 188 8z"/>
<path d="M2370 2121 l0 -101 -100 0 -100 0 0 -45 0 -45 100 0 99 0 3 -102 3
-103 45 0 45 0 3 103 3 102 99 0 100 0 0 45 0 45 -100 0 -99 0 -3 98 -3 97
-47 3 -48 3 0 -100z"/>
<path d="M745 1046 c-64 -28 -106 -109 -90 -173 42 -170 295 -139 295 37 0 58
-28 103 -79 130 -46 23 -83 25 -126 6z m99 -102 c43 -43 -19 -120 -70 -86 -6
4 -16 17 -23 30 -27 52 51 99 93 56z"/>
<path d="M2090 1041 c-138 -73 -87 -281 70 -281 124 0 192 147 112 242 -48 57
-120 73 -182 39z m108 -93 c20 -20 15 -76 -7 -88 -29 -15 -49 -12 -71 10 -24
24 -26 53 -4 74 18 19 65 21 82 4z"/>
</g>
</svg>
