<?xml version="1.0" standalone="no"?>
<!DOCTYPE svg PUBLIC "-//W3C//DTD SVG 20010904//EN"
 "http://www.w3.org/TR/2001/REC-SVG-20010904/DTD/svg10.dtd">
<svg version="1.0" xmlns="http://www.w3.org/2000/svg"
 width="300.000000pt" height="300.000000pt" viewBox="0 0 300.000000 300.000000"
 preserveAspectRatio="xMidYMid meet">
<metadata>
Created by potrace 1.10, written by Peter Selinger 2001-2011
</metadata>
<g transform="translate(0.000000,300.000000) scale(0.100000,-0.100000)"
fill="#000000" stroke="none">
<path d="M1274 2728 c-31 -15 -41 -40 -64 -162 -11 -61 -22 -112 -25 -114 -2
-2 -38 -19 -79 -37 l-76 -33 -102 71 c-147 102 -136 104 -314 -74 -111 -112
-144 -151 -144 -171 0 -15 29 -70 71 -133 l70 -108 -32 -77 -32 -77 -101 -23
c-111 -25 -150 -41 -160 -65 -3 -9 -6 -112 -6 -229 0 -259 -8 -245 156 -282
60 -14 109 -26 110 -27 1 -1 16 -37 34 -79 l31 -77 -70 -105 c-45 -66 -71
-115 -71 -132 0 -22 30 -57 144 -173 178 -178 167 -176 315 -75 l103 71 75
-32 c41 -18 76 -35 79 -37 2 -3 15 -58 28 -124 35 -171 23 -164 281 -164 128
0 213 4 228 11 33 15 42 38 67 165 11 60 22 110 25 112 2 2 38 19 79 37 l74
32 113 -74 c90 -59 118 -73 138 -68 15 3 87 66 169 149 113 113 142 148 142
170 0 17 -26 66 -71 132 l-71 106 32 78 32 79 96 21 c119 26 150 38 162 61 6
10 10 114 10 233 0 270 15 246 -191 291 l-76 16 -32 79 -33 78 71 106 c45 66
71 115 71 132 0 22 -29 57 -142 170 -82 83 -154 146 -169 149 -20 5 -48 -9
-138 -68 l-113 -74 -74 32 c-41 18 -77 35 -79 37 -3 2 -14 52 -25 112 -25 127
-34 150 -67 165 -31 14 -420 14 -449 -1z m394 -233 c12 -60 29 -119 37 -131 8
-12 31 -28 52 -35 21 -6 76 -29 122 -50 46 -22 89 -39 96 -39 7 0 60 31 117
69 l105 68 91 -84 c51 -47 92 -89 92 -94 0 -5 -29 -53 -65 -107 -36 -53 -65
-106 -65 -118 0 -28 97 -256 115 -270 8 -6 62 -21 120 -34 l105 -23 0 -149 c0
-81 -2 -148 -5 -148 -2 0 -48 -10 -102 -21 -108 -24 -136 -41 -154 -98 -7 -20
-27 -69 -46 -110 -18 -40 -33 -83 -33 -95 0 -12 30 -66 66 -120 l66 -99 -93
-93 -92 -92 -89 60 c-122 82 -135 85 -195 55 -26 -13 -81 -37 -122 -53 -40
-15 -79 -38 -87 -49 -8 -12 -24 -70 -36 -128 l-21 -107 -147 0 -147 0 -22 108
c-13 59 -29 116 -36 127 -7 12 -46 34 -86 49 -41 16 -95 40 -122 53 -30 15
-56 21 -71 17 -14 -3 -67 -35 -118 -70 l-92 -64 -94 93 -94 94 66 99 c42 63
66 109 66 127 0 15 -13 53 -28 85 -16 31 -39 83 -52 115 -12 32 -30 62 -39 66
-9 5 -62 19 -119 32 l-102 22 0 147 0 147 103 23 c56 12 111 28 123 35 11 7
31 42 44 77 12 34 33 84 46 110 37 72 32 93 -42 203 l-66 97 92 93 93 93 104
-69 c58 -38 111 -69 119 -69 8 0 40 13 72 29 31 15 86 39 120 51 35 13 70 33
78 45 7 11 23 66 34 120 11 55 22 106 25 113 3 10 39 12 147 10 l143 -3 23
-110z"/>
<path d="M1375 2155 c-208 -38 -385 -169 -474 -350 -106 -216 -91 -484 40
-679 66 -99 144 -167 254 -221 475 -235 1004 113 972 640 -12 210 -114 391
-282 504 -155 103 -330 140 -510 106z m240 -130 c105 -22 190 -68 266 -144
261 -261 186 -708 -144 -865 -126 -60 -237 -71 -371 -36 -106 27 -169 63 -246
140 -77 77 -113 140 -140 246 -49 192 0 374 140 515 130 131 309 183 495 144z"/>
<path d="M1426 1864 c-3 -9 -6 -76 -6 -150 l0 -134 -138 0 c-94 0 -142 -4
-150 -12 -16 -16 -16 -120 0 -136 8 -8 56 -12 150 -12 l138 0 0 -138 c0 -94 4
-142 12 -150 19 -19 134 -16 142 4 3 9 6 76 6 150 l0 134 138 0 c94 0 142 4
150 12 19 19 16 134 -4 142 -9 3 -76 6 -150 6 l-134 0 0 134 c0 74 -3 141 -6
150 -5 12 -21 16 -74 16 -53 0 -69 -4 -74 -16z"/>
</g>
</svg>
