<?xml version="1.0" encoding="UTF-8"?>
<svg xmlns="http://www.w3.org/2000/svg" width="24" height="24" viewBox="0 0 24 24">
  <path fill="#000000" fill-rule="evenodd" d="M 22.000,12.000 L 19.391,15.061 L 19.071,19.071 L 15.061,19.391 L 12.000,22.000 L 8.939,19.391 L 4.929,19.071 L 4.609,15.061 L 2.000,12.000 L 4.609,8.939 L 4.929,4.929 L 8.939,4.609 L 12.000,2.000 L 15.061,4.609 L 19.071,4.929 L 19.391,8.939 Z M 16.000,12.000 L 15.923,11.220 L 15.696,10.469 L 15.326,9.778 L 14.828,9.172 L 14.222,8.674 L 13.531,8.304 L 12.780,8.077 L 12.000,8.000 L 11.220,8.077 L 10.469,8.304 L 9.778,8.674 L 9.172,9.172 L 8.674,9.778 L 8.304,10.469 L 8.077,11.220 L 8.000,12.000 L 8.077,12.780 L 8.304,13.531 L 8.674,14.222 L 9.172,14.828 L 9.778,15.326 L 10.469,15.696 L 11.220,15.923 L 12.000,16.000 L 12.780,15.923 L 13.531,15.696 L 14.222,15.326 L 14.828,14.828 L 15.326,14.222 L 15.696,13.531 L 15.923,12.780 Z"/>
</svg>
